<?xml version="1.0" encoding="utf-8" ?>
<svg baseProfile="tiny" height="500" version="1.2" width="500" xmlns="http://www.w3.org/2000/svg" xmlns:ev="http://www.w3.org/2001/xml-events" xmlns:xlink="http://www.w3.org/1999/xlink"><defs /><polygon fill="none" points="0,0 24.46,0 24.46,-24.46 0.0,-24.46 0.0,-0.55 23.91,-0.55 23.91,-23.91 0.55,-23.91 0.55,-1.1 23.36,-1.1 23.36,-23.36 1.1,-23.36 1.1,-1.65 22.81,-1.65 22.81,-22.81 1.65,-22.81 1.65,-2.2 22.26,-2.2 22.26,-22.26 2.2,-22.26 2.2,-2.75 21.71,-2.75 21.71,-21.71 2.75,-21.71 2.75,-3.3 21.16,-3.3 21.16,-21.16 3.3,-21.16 3.3,-3.85 20.61,-3.85 20.61,-20.61 3.85,-20.61 3.85,-4.4 20.06,-4.4 20.06,-20.06 4.4,-20.06 4.4,-4.95 19.51,-4.95 19.51,-19.51 4.95,-19.51 4.95,-5.5 18.96,-5.5 18.96,-18.96 5.5,-18.96 5.5,-6.05 18.41,-6.05 18.41,-18.41 6.05,-18.41 6.05,-6.6 17.86,-6.6 17.86,-17.86 6.6,-17.86 6.6,-7.15 17.31,-7.15 17.31,-17.31 7.15,-17.31 7.15,-7.7 16.76,-7.7 16.76,-16.76 7.7,-16.76 7.7,-8.25 16.21,-8.25 16.21,-16.21 8.25,-16.21 8.25,-8.8 15.66,-8.8 15.66,-15.66 8.8,-15.66 8.8,-9.35 15.11,-9.35 15.11,-15.11 9.35,-15.11 9.35,-9.9 14.56,-9.9 14.56,-10.15 14.31,-10.15 9.6,-10.15 9.6,-14.86 14.86,-14.86 14.86,-9.6 9.05,-9.6 9.05,-15.41 15.41,-15.41 15.41,-9.05 8.5,-9.05 8.5,-15.96 15.96,-15.96 15.96,-8.5 7.95,-8.5 7.95,-16.51 16.51,-16.51 16.51,-7.95 7.4,-7.95 7.4,-17.06 17.06,-17.06 17.06,-7.4 6.85,-7.4 6.85,-17.61 17.61,-17.61 17.61,-6.85 6.3,-6.85 6.3,-18.16 18.16,-18.16 18.16,-6.3 5.75,-6.3 5.75,-18.71 18.71,-18.71 18.71,-5.75 5.2,-5.75 5.2,-19.26 19.26,-19.26 19.26,-5.2 4.65,-5.2 4.65,-19.81 19.81,-19.81 19.81,-4.65 4.1,-4.65 4.1,-20.36 20.36,-20.36 20.36,-4.1 3.55,-4.1 3.55,-20.91 20.91,-20.91 20.91,-3.55 3.0,-3.55 3.0,-21.46 21.46,-21.46 21.46,-3.0 2.45,-3.0 2.45,-22.01 22.01,-22.01 22.01,-2.45 1.9,-2.45 1.9,-22.56 22.56,-22.56 22.56,-1.9 1.35,-1.9 1.35,-23.11 23.11,-23.11 23.11,-1.35 0.8,-1.35 0.8,-23.66 23.66,-23.66 23.66,-0.8 0.25,-0.8 0.25,-24.21 24.21,-24.21 24.21,-0.25 0,-0.25 0,0" stroke="black" stroke-width="1" /></svg>